PathFileType	4	(X/Y/Z)	72_2_7_p0_0-349_filt_butterworth.trc
DataRate	CameraRate	NumFrames	NumMarkers	Units	OrigDataRate	OrigDataStartFrame	OrigNumFrames
50.0	50.0	7	27	m	50.0	261	349
Frame#	Time	RHip			RKnee			RAnkle			RBigToe			RSmallToe			RHeel			LHip			LKnee			LAnkle			LBigToe			LSmallToe			LHeel			Neck			Head			Nose			RShoulder			RElbow			RWrist			RThumb			RIndex			RPinky			LShoulder			LElbow			LWrist			LThumb			LIndex			LPinky			
		X1	Y1	Z1	X2	Y2	Z2	X3	Y3	Z3	X4	Y4	Z4	X5	Y5	Z5	X6	Y6	Z6	X7	Y7	Z7	X8	Y8	Z8	X9	Y9	Z9	X10	Y10	Z10	X11	Y11	Z11	X12	Y12	Z12	X13	Y13	Z13	X14	Y14	Z14	X15	Y15	Z15	X16	Y16	Z16	X17	Y17	Z17	X18	Y18	Z18	X19	Y19	Z19	X20	Y20	Z20	X21	Y21	Z21	X22	Y22	Z22	X23	Y23	Z23	X24	Y24	Z24	X25	Y25	Z25	X26	Y26	Z26	X27	Y27	Z27	
261	5.22	0.25265363496325427	0.9103303330013776	0.43703395004794454	0.23437696159988286	0.5024130423400307	0.5346965741042169	0.20217085361511303	0.10821781654814884	0.6086083001111099	0.1565401917280926	0.0732784251743671	0.4774938682325662	0.2185590091846617	0.08438587614055237	0.4782605016111575	0.17943750912663503	0.04002768619277523	0.6936088016082216	0.06554158655633761	0.9289780789262682	0.5013300574871336	0.03725408828723285	0.5165900374678379	0.5824114072550084	0.02487302720641242	0.13885638174841572	0.6453893192812248	-0.007215144574518656	0.08366397937843607	0.5178257713387557	-0.045272136301124144	0.11224668813931936	0.5321046263303627	0.0425797900937302	0.07550745723696572	0.6830359488958543	0.27274252614446143	1.4213181357576457	0.33452470475365437	0.2507774060305843	1.691593047236691	0.12474545046148836	0.2305522188596573	1.5125495523846804	0.13576949034937058	0.38847095828638	1.3684272201681145	0.3005973661818887	0.3344745505913932	1.1052143080944912	0.22666465903853522	0.2381404534351257	1.2770005910502655	0.13983933244240987	0.24604298634517302	1.4054179699934417	0.17093479555263455	0.2382613297843018	1.4162888703538525	0.13265492086669553	0.19559527459465081	1.3575183013619916	0.10676653442467732	0.14056895133599526	1.4592882029991472	0.4477693255092969	0.032876470550803505	1.2309559242561554	0.47779716506823733	-0.02898206446822415	0.9970001549708871	0.5017234611685146	-0.002886791438585383	0.8992856356175563	0.4325142105805548	-0.02888247955623504	0.8839858892620868	0.3970399591550574	-0.06029647106073878	0.8692014357627398	0.4748416575296009	
262	5.24	0.2527077195136056	0.9100764437715854	0.4371474539520271	0.2342099304779758	0.5019638275434734	0.534004187933314	0.20217560077088065	0.10812341778612783	0.6086226217199335	0.15654891909893318	0.07358813737857776	0.4777749554629471	0.21948825593849958	0.08417778859792513	0.4786724627486186	0.1794556021215674	0.04093054473798313	0.6934532894472247	0.06545473672439965	0.9286264046436746	0.5010580669232644	0.03743129400694553	0.5163625318822987	0.5830529299322575	0.024900506373885956	0.13883711051642986	0.6453981947267419	-0.008040969845582228	0.08587150522013673	0.5153823408926238	-0.04555239583683571	0.1115904067137553	0.5333952497112842	0.042739736486558315	0.07526749590737186	0.6830567824179351	0.27285665661500214	1.421752663110989	0.3345110841069071	0.24970915862621723	1.6912841833172574	0.12647580349964482	0.22886646978421973	1.512850629948096	0.13602682976733543	0.3885220743254273	1.3676112562581664	0.30054193066387935	0.3342351672990348	1.1039569180651774	0.22903391446290675	0.23846138070556833	1.2754341332478165	0.14076330608776733	0.24460428812771962	1.4040469665604227	0.16435087601859422	0.23618237598640218	1.4128778253405838	0.1311989446115046	0.19412532644902397	1.356471384880781	0.10641257833043806	0.14019663244834688	1.4593930581743586	0.44768119784566907	0.03288202818969175	1.2311254992048846	0.4778720871239674	-0.029093663433876926	0.9965182064493118	0.5017668223696837	-0.002182915911476006	0.9000421509006387	0.4342903860718995	-0.02816015011003356	0.8834488680481322	0.3972871669285119	-0.05975838734469792	0.8690381605433308	0.47565314259543034	
263	5.26	0.2527411543262187	0.9098697181640079	0.4372677466946325	0.2341639072325361	0.5017203419415128	0.5332024213685485	0.2021958737683491	0.10796869494227121	0.6086617823923579	0.15652162833948913	0.074036226515046	0.47809350754963154	0.22116354084405612	0.08334388291738741	0.4802191058786866	0.17948974893430664	0.0419219965572802	0.6932825629133614	0.06539240744827325	0.9283411754040619	0.5011283372048959	0.037606239536119745	0.516592360351642	0.5832524247689748	0.024972439509555428	0.1388578533608656	0.6453608060137814	-0.008420768557508925	0.08782871727475333	0.5142823598639787	-0.04604398766594317	0.1104180730903837	0.5356981627172854	0.04282398212593211	0.07512678103787396	0.6828674988047663	0.2736137557482627	1.421771347951635	0.3343839992526359	0.24863011603782748	1.6910520081856102	0.12861648304230286	0.22738378699645373	1.512896457651384	0.135991663890559	0.38857715152741734	1.3667799299933308	0.3005095831193536	0.33400914557849326	1.1027895369229723	0.23157488663471887	0.23906551374290033	1.2741321680781361	0.1421855214994917	0.24331876575764289	1.4023603218031382	0.159702196437628	0.2339006417871542	1.4096003238070922	0.13015554366427057	0.19256963313907455	1.3551089213019307	0.10780841472478575	0.1396046234747485	1.4595028236990593	0.447574952330589	0.032889961356504606	1.2311699452037854	0.4779779768693295	-0.029204747092472887	0.9961793004568419	0.5019989522011752	-0.0018031301127914307	0.9015433431233271	0.4343900315760734	-0.027880665508760366	0.8836048419943255	0.39734616600717954	-0.06003492679035134	0.8693105978499713	0.47488405621536267	
264	5.28	0.25277928345512596	0.9097165221791201	0.4374079678357153	0.23420319454497782	0.501675663401773	0.5321476943615348	0.20223074889377377	0.10783098097584856	0.6086968390597554	0.15646748882588773	0.0745730955331145	0.47838497688166254	0.2232049096210026	0.08208154901556644	0.4825297715874369	0.17952108989237012	0.042940962406988296	0.6930983143212793	0.06537871990547298	0.9281043894357828	0.501749677055044	0.03787615471010232	0.5171096919460397	0.5829295664349786	0.025118360179300643	0.13886599152837792	0.6453567711477894	-0.008375621068962415	0.0890525050791219	0.5143973879096394	-0.04665993230087334	0.1089472449086594	0.5385745689626501	0.04290320871321417	0.07505127126479211	0.6826398406771719	0.27460188486714154	1.4214758586051632	0.3339997745351198	0.24765802112790167	1.6909687599959407	0.13086847163564952	0.22634504524173804	1.5128199445215893	0.13564724215903107	0.3885520655762439	1.366076919016631	0.30048241715313284	0.33380975767837545	1.1018023919920672	0.23399561339024577	0.2400053319873237	1.2730560507872148	0.1438914713604818	0.24244103543175385	1.4005680899882236	0.15651052539548485	0.2317617462895345	1.406934717972823	0.12862861818172833	0.191389562759466	1.3536000928619931	0.10915404595446415	0.1388553325259613	1.4596247580560784	0.44746581375321526	0.0329055916701028	1.2311640079124213	0.4781093753114086	-0.029279870899077822	0.9960430655123832	0.502393787000016	-0.0018013535738684934	0.903153409872488	0.4328173791979726	-0.02817587924313901	0.884304157496513	0.397240819904189	-0.06093324830920139	0.8699495014292961	0.4727592761443087	
265	5.3	0.252836087630899	0.909718674900631	0.43756990785301975	0.23432716593684624	0.5017786846218861	0.5307307545712725	0.20226321519871746	0.10778990548574775	0.6086999462553008	0.1564205023639016	0.07518199184365379	0.47867005380964234	0.22509504025206356	0.0804420798466079	0.4855149214243519	0.17953525715036825	0.04389443827972439	0.6929103566559565	0.06542323542960511	0.9279631161151154	0.5027613025442543	0.03829765221461708	0.5178356622707374	0.5821051497221806	0.025269210742725586	0.1388490066145205	0.6453796919173794	-0.00814246717188467	0.08945045025315795	0.5150599145147478	-0.047310994511429436	0.10738855940665097	0.5415996569691942	0.04305295306075776	0.07507991935616913	0.6824884400210349	0.2754626908375485	1.4209168490407376	0.3336534714719922	0.24695720309596164	1.6909191108506134	0.13298141970357308	0.22561398270398225	1.5123971882798322	0.13564214046692247	0.3884350694026327	1.3654307303250879	0.30045005892335613	0.3336452749727937	1.101117417638609	0.23594791085479933	0.2412625013203923	1.2720411265940463	0.14566948581384037	0.2415115308512567	1.3988864136109598	0.1542704043569538	0.22919410906629564	1.405158816796429	0.12535262526243812	0.1906586163127338	1.352085438705307	0.10893342686217555	0.13804363661908534	1.4597367214550336	0.4473533401846779	0.032932517142535554	1.2311610462835643	0.4782548744855945	-0.029292833310381294	0.9960861029846825	0.5027281328720944	-0.0021793525139717136	0.9042951230746475	0.43022718129217785	-0.02886118300862238	0.8851106930901989	0.39705873351331333	-0.06209389291317883	0.8707872463497098	0.46995329559794674	
266	5.32	0.25293313428694664	0.9099985891093033	0.43772738971342284	0.23455802055905672	0.5020995066058239	0.5289874103406077	0.2022756585615627	0.10786731400233757	0.6086632857771891	0.15640567436848837	0.07577646510426485	0.47896708773037083	0.22639459142806384	0.07870031778835311	0.48869167302144434	0.17953468344367765	0.044708452282042475	0.6927294857824553	0.06546948335245747	0.928030809504024	0.5037337281804914	0.03881807848994457	0.5188527178971423	0.5809765847702177	0.025342871640606092	0.1387517153708846	0.6454198724617055	-0.007986288373623638	0.08926723800063832	0.5155689634362386	-0.04791518396411901	0.10592776078967323	0.5444124707990157	0.043281755021609164	0.07519588789402089	0.6824347318626977	0.2760793539600517	1.42011324892474	0.3340125785985601	0.24661475463148186	1.690740030031335	0.1346349430544735	0.22491063397545513	1.511352852608499	0.13654007563224288	0.3882520533605681	1.3647698246400488	0.3004085684629995	0.33354365462434465	1.1008202326222538	0.23707678852864403	0.24275815906243783	1.2711532315852356	0.1473589177285616	0.23989169647938297	1.397562484927362	0.15243688549631723	0.22576758197858976	1.4043682724170747	0.1197723506633208	0.1900749957740314	1.350877217919446	0.10616132976564947	0.13727070402148087	1.4598032467910673	0.4472604934814518	0.03295936194594979	1.2311661683786526	0.4783846614242785	-0.02916174255770712	0.9962571707236602	0.5025064120496385	-0.0028155327622416543	0.9046356760418979	0.4274637960010823	-0.029638523552504584	0.8856221862021585	0.39688471006916404	-0.06319225670760172	0.8715881854877362	0.4672867082891421	
267	5.34	0.2530717369662998	0.9105867920627052	0.437786925811317	0.23490818310444758	0.5026596761085476	0.5271642521413576	0.20226290256675955	0.10804617104795705	0.6085948372709862	0.15643230075093756	0.07620605771316043	0.47924114697018416	0.22693345702416257	0.07725722415833561	0.4913341164986366	0.17953009064271638	0.045369699260285334	0.6925628447706098	0.06545673533390077	0.9284187701939234	0.5044288233260783	0.039307480570290744	0.5201703728454204	0.579737223080982	0.02531080202307143	0.13853502976186244	0.6454732057673378	-0.00797095177186219	0.08876974419546418	0.5156767210769658	-0.04838628584958841	0.10476420183592178	0.5466390742180124	0.043538241650000024	0.07526966087285838	0.6824967374459743	0.2764227511192144	1.4190801679593152	0.335387970301682	0.24652136332679703	1.6903729856006975	0.13549853164765158	0.223981536100535	1.509767173924888	0.13826797391078277	0.38814047400706647	1.364188173586191	0.3002641693272657	0.33353363315810985	1.1008258519062184	0.2372713975186776	0.2443781877194487	1.270607784708502	0.1488426757199668	0.23760901957822816	1.3968677808477714	0.15005778265252417	0.22190920050665888	1.4043565772071125	0.11250578181323874	0.189213500673311	1.350317479105086	0.1003291194903936	0.1366481845871596	1.459830315951583	0.4472131219185238	0.03297838621780305	1.2311716659142002	0.4784645454962255	-0.028914327781989206	0.9965602407743722	0.5013914166767316	-0.003558479223917564	0.9041626693631466	0.42503780262300545	-0.030442550932306113	0.885873753749065	0.3967234399098474	-0.06403771524494939	0.8721769346266661	0.4652795255533865	
